<svg width="64" height="64" viewBox="0 0 64 64" fill="none" xmlns="http://www.w3.org/2000/svg">
<path d="M26.6667 33.3333C25.6058 33.3333 24.5884 33.7547 23.8383 34.5048C23.0881 35.255 22.6667 36.2724 22.6667 37.3333C22.6667 38.3941 23.0881 39.4115 23.8383 40.1617C24.5884 40.9118 25.6058 41.3333 26.6667 41.3333C27.7276 41.3333 28.745 40.9118 29.4951 40.1617C30.2453 39.4115 30.6667 38.3941 30.6667 37.3333C30.6667 36.2724 30.2453 35.255 29.4951 34.5048C28.745 33.7547 27.7276 33.3333 26.6667 33.3333ZM26.6667 38.6666C26.3131 38.6666 25.9739 38.5261 25.7239 38.2761C25.4739 38.026 25.3334 37.6869 25.3334 37.3333C25.3334 36.9796 25.4739 36.6405 25.7239 36.3904C25.9739 36.1404 26.3131 35.9999 26.6667 35.9999C27.0203 35.9999 27.3595 36.1404 27.6095 36.3904C27.8596 36.6405 28 36.9796 28 37.3333C28 37.6869 27.8596 38.026 27.6095 38.2761C27.3595 38.5261 27.0203 38.6666 26.6667 38.6666ZM26.6667 22.6666C25.6058 22.6666 24.5884 23.088 23.8383 23.8382C23.0881 24.5883 22.6667 25.6057 22.6667 26.6666C22.6667 27.7275 23.0881 28.7449 23.8383 29.495C24.5884 30.2452 25.6058 30.6666 26.6667 30.6666C27.7276 30.6666 28.745 30.2452 29.4951 29.495C30.2453 28.7449 30.6667 27.7275 30.6667 26.6666C30.6667 25.6057 30.2453 24.5883 29.4951 23.8382C28.745 23.088 27.7276 22.6666 26.6667 22.6666ZM26.6667 27.9999C26.3131 27.9999 25.9739 27.8594 25.7239 27.6094C25.4739 27.3593 25.3334 27.0202 25.3334 26.6666C25.3334 26.313 25.4739 25.9738 25.7239 25.7238C25.9739 25.4737 26.3131 25.3333 26.6667 25.3333C27.0203 25.3333 27.3595 25.4737 27.6095 25.7238C27.8596 25.9738 28 26.313 28 26.6666C28 27.0202 27.8596 27.3593 27.6095 27.6094C27.3595 27.8594 27.0203 27.9999 26.6667 27.9999ZM57.3334 33.3333C57.687 33.3333 58.0261 33.1928 58.2762 32.9427C58.5262 32.6927 58.6667 32.3535 58.6667 31.9999C58.6667 31.6463 58.5262 31.3072 58.2762 31.0571C58.0261 30.8071 57.687 30.6666 57.3334 30.6666H50.6667V22.6666H57.3334C57.687 22.6666 58.0261 22.5261 58.2762 22.2761C58.5262 22.026 58.6667 21.6869 58.6667 21.3333C58.6667 20.9796 58.5262 20.6405 58.2762 20.3904C58.0261 20.1404 57.687 19.9999 57.3334 19.9999H50.6667C50.6653 18.2322 49.9625 16.5374 48.7125 15.2874C47.4626 14.0375 45.7677 13.3347 44 13.3333V6.66659C44 6.31296 43.8596 5.97383 43.6095 5.72378C43.3595 5.47373 43.0203 5.33325 42.6667 5.33325C42.3131 5.33325 41.974 5.47373 41.7239 5.72378C41.4739 5.97383 41.3334 6.31296 41.3334 6.66659V13.3333H33.3334V6.66659C33.3334 6.31296 33.1929 5.97383 32.9429 5.72378C32.6928 5.47373 32.3537 5.33325 32 5.33325C31.6464 5.33325 31.3073 5.47373 31.0572 5.72378C30.8072 5.97383 30.6667 6.31296 30.6667 6.66659V13.3333H22.6667V6.66659C22.6667 6.31296 22.5262 5.97383 22.2762 5.72378C22.0261 5.47373 21.687 5.33325 21.3334 5.33325C20.9798 5.33325 20.6406 5.47373 20.3906 5.72378C20.1405 5.97383 20 6.31296 20 6.66659V13.3333C18.2324 13.3347 16.5375 14.0375 15.2876 15.2874C14.0376 16.5374 13.3348 18.2322 13.3334 19.9999H6.66671C6.31309 19.9999 5.97395 20.1404 5.7239 20.3904C5.47385 20.6405 5.33337 20.9796 5.33337 21.3333C5.33337 21.6869 5.47385 22.026 5.7239 22.2761C5.97395 22.5261 6.31309 22.6666 6.66671 22.6666H13.3334V30.6666H6.66671C6.31309 30.6666 5.97395 30.8071 5.7239 31.0571C5.47385 31.3072 5.33337 31.6463 5.33337 31.9999C5.33337 32.3535 5.47385 32.6927 5.7239 32.9427C5.97395 33.1928 6.31309 33.3333 6.66671 33.3333H13.3334V41.3333H6.66671C6.31309 41.3333 5.97395 41.4737 5.7239 41.7238C5.47385 41.9738 5.33337 42.313 5.33337 42.6666C5.33337 43.0202 5.47385 43.3594 5.7239 43.6094C5.97395 43.8594 6.31309 43.9999 6.66671 43.9999H13.3334C13.3348 45.7676 14.0376 47.4625 15.2876 48.7124C16.5375 49.9623 18.2324 50.6652 20 50.6666V57.3333C20 57.6869 20.1405 58.026 20.3906 58.2761C20.6406 58.5261 20.9798 58.6666 21.3334 58.6666C21.687 58.6666 22.0261 58.5261 22.2762 58.2761C22.5262 58.026 22.6667 57.6869 22.6667 57.3333V50.6666H30.6667V57.3333C30.6667 57.6869 30.8072 58.026 31.0572 58.2761C31.3073 58.5261 31.6464 58.6666 32 58.6666C32.3537 58.6666 32.6928 58.5261 32.9429 58.2761C33.1929 58.026 33.3334 57.6869 33.3334 57.3333V50.6666H41.3334V57.3333C41.3334 57.6869 41.4739 58.026 41.7239 58.2761C41.974 58.5261 42.3131 58.6666 42.6667 58.6666C43.0203 58.6666 43.3595 58.5261 43.6095 58.2761C43.8596 58.026 44 57.6869 44 57.3333V50.6666C45.7677 50.6652 47.4626 49.9623 48.7125 48.7124C49.9625 47.4625 50.6653 45.7676 50.6667 43.9999H57.3334C57.687 43.9999 58.0261 43.8594 58.2762 43.6094C58.5262 43.3594 58.6667 43.0202 58.6667 42.6666C58.6667 42.313 58.5262 41.9738 58.2762 41.7238C58.0261 41.4737 57.687 41.3333 57.3334 41.3333H50.6667V33.3333H57.3334ZM48 43.9999C48 46.2079 46.208 47.9999 44 47.9999H20C17.792 47.9999 16 46.2079 16 43.9999V19.9999C16 17.7919 17.792 15.9999 20 15.9999H44C46.208 15.9999 48 17.7919 48 19.9999V43.9999ZM37.3334 22.6666C36.2725 22.6666 35.2551 23.088 34.5049 23.8382C33.7548 24.5883 33.3334 25.6057 33.3334 26.6666C33.3334 27.7275 33.7548 28.7449 34.5049 29.495C35.2551 30.2452 36.2725 30.6666 37.3334 30.6666C38.3942 30.6666 39.4117 30.2452 40.1618 29.495C40.912 28.7449 41.3334 27.7275 41.3334 26.6666C41.3334 25.6057 40.912 24.5883 40.1618 23.8382C39.4117 23.088 38.3942 22.6666 37.3334 22.6666V22.6666ZM37.3334 27.9999C36.9798 27.9999 36.6406 27.8594 36.3906 27.6094C36.1405 27.3593 36 27.0202 36 26.6666C36 26.313 36.1405 25.9738 36.3906 25.7238C36.6406 25.4737 36.9798 25.3333 37.3334 25.3333C37.687 25.3333 38.0261 25.4737 38.2762 25.7238C38.5262 25.9738 38.6667 26.313 38.6667 26.6666C38.6667 27.0202 38.5262 27.3593 38.2762 27.6094C38.0261 27.8594 37.687 27.9999 37.3334 27.9999ZM37.3334 33.3333C36.2725 33.3333 35.2551 33.7547 34.5049 34.5048C33.7548 35.255 33.3334 36.2724 33.3334 37.3333C33.3334 38.3941 33.7548 39.4115 34.5049 40.1617C35.2551 40.9118 36.2725 41.3333 37.3334 41.3333C38.3942 41.3333 39.4117 40.9118 40.1618 40.1617C40.912 39.4115 41.3334 38.3941 41.3334 37.3333C41.3334 36.2724 40.912 35.255 40.1618 34.5048C39.4117 33.7547 38.3942 33.3333 37.3334 33.3333V33.3333ZM37.3334 38.6666C36.9798 38.6666 36.6406 38.5261 36.3906 38.2761C36.1405 38.026 36 37.6869 36 37.3333C36 36.9796 36.1405 36.6405 36.3906 36.3904C36.6406 36.1404 36.9798 35.9999 37.3334 35.9999C37.687 35.9999 38.0261 36.1404 38.2762 36.3904C38.5262 36.6405 38.6667 36.9796 38.6667 37.3333C38.6667 37.6869 38.5262 38.026 38.2762 38.2761C38.0261 38.5261 37.687 38.6666 37.3334 38.6666Z" fill="black"/>
</svg>
