<svg width="1054" height="460" viewBox="0 0 1054 460" fill="none" xmlns="http://www.w3.org/2000/svg">
<g clip-path="url(#clip0_202_675)">
<path d="M416.962 458.934C416.305 452.917 416.018 446.864 416.102 440.81C409.303 452.768 397.99 459.805 385.096 459.805C373.959 459.805 365.404 454.368 361.926 445.039C360.169 440.277 359.484 433.063 359.484 417.765V388.732C359.484 379.599 358.782 375.886 356.867 374.304C355.83 373.256 354.249 372.9 350.947 372.723H347.82V368.849L374.837 367.073C373.977 383.437 373.783 387.666 373.783 399.819V415.118C373.783 432.886 374.135 437.63 376.225 443.778C378.316 450.281 383.252 453.657 390.279 453.657C399.852 453.657 408.39 447.296 412.922 436.564C415.522 430.576 416.049 426.72 416.049 415.811V388.732C416.049 379.421 415.522 376.063 413.449 374.517C412.395 373.469 410.656 372.936 407.511 372.741H404.367V368.867L431.385 367.09C430.858 380.292 430.506 391.966 430.506 399.837V433.063C430.506 450.672 432.07 453.834 441.134 453.834H442.364V457.708L416.962 458.934Z" fill="#C70920"/>
<path d="M486.315 347.723C496.855 334.539 511.91 327.68 530.742 327.68C549.573 327.68 564.522 334.361 575.15 347.723C584.742 360.054 589.608 375.37 589.608 393.92C589.608 412.47 584.742 427.875 575.15 439.833C564.364 453.372 549.749 460.071 530.742 460.071C511.734 460.071 496.574 452.964 486.315 439.833C476.724 427.52 471.841 412.204 471.841 393.92C471.841 375.637 476.548 360.232 486.315 347.723ZM498.893 436.066C505.92 448.504 516.829 455.238 530.777 455.238C544.725 455.238 555.686 448.557 562.66 436.066C568.914 424.624 572.041 410.889 572.041 393.849C572.041 376.809 568.914 363.057 562.66 351.614C555.634 338.945 544.707 332.442 530.777 332.442C516.846 332.442 505.92 339.123 498.893 351.614C492.622 363.235 489.478 377.111 489.478 393.849C489.478 410.587 492.587 424.268 498.893 436.066Z" fill="#C70920"/>
<path d="M629.15 432.726C629.15 443.102 629.677 447.687 631.416 450.139C633.155 452.591 635.948 453.834 639.954 453.834C643.836 453.858 647.645 452.761 650.933 450.672L652.514 455.238C647.107 458.148 641.071 459.656 634.947 459.627C626.41 459.627 619.963 456.66 616.994 451.027C615.079 447.473 614.57 443.635 614.57 430.594V373.611H603.591V369.578C613.867 368.689 619.084 361.831 621.702 345.289L629.712 343.014C629.361 350.566 629.185 357.229 629.185 368.867H650.107V373.629H629.15V432.726Z" fill="#C70920"/>
<path d="M686.611 432.726C686.611 443.102 687.12 447.687 688.859 450.139C690.598 452.591 693.391 453.834 697.397 453.834C701.279 453.855 705.087 452.758 708.376 450.672L709.939 455.238C704.535 458.153 698.498 459.662 692.373 459.627C683.835 459.627 677.388 456.66 674.419 451.027C672.505 447.473 671.978 443.635 671.978 430.594V373.611H660.998V369.578C671.275 368.689 676.51 361.831 679.127 345.289L687.138 343.014C686.804 350.566 686.628 357.229 686.628 368.867H707.515V373.629H686.611V432.726Z" fill="#C70920"/>
<path d="M802.972 457.353C797.03 458.318 791.034 458.911 785.019 459.129C779.749 459.129 778.397 456.304 777.711 444.506C775.2 447.397 772.331 449.947 769.174 452.093C762.763 457.23 754.758 459.899 746.583 459.627C738.907 459.627 733.162 457.85 728.806 454.19C726.326 451.782 724.364 448.882 723.043 445.672C721.722 442.461 721.071 439.01 721.129 435.533C721.129 421.639 729.913 412.666 746.759 408.792C756.963 406.531 767.332 405.117 777.764 404.563V393.494C777.764 385.392 777.079 381.163 775.322 377.503C773.074 372.936 768.19 370.662 761.041 370.662C749.535 370.662 743.615 375.992 742.929 386.849C742.754 390.509 742.402 391.77 741.015 392.819C739.146 393.854 737.029 394.341 734.901 394.222C728.982 394.222 726.382 392.641 726.382 388.892C726.382 382.566 730.896 376.223 738.204 372.012C744.844 368.299 753.364 366.397 763.641 366.397C774.813 366.397 782.806 369.027 786.987 374.109C790.5 378.515 792.046 384.326 792.046 393.991C792.046 394.524 792.046 394.524 791.694 411.76L791.536 428.462L791.343 436.546C791.343 443.938 792.221 450.263 793.275 451.702C794.329 453.142 796.402 453.639 803.025 453.639L802.972 457.353ZM777.711 408.668C762.2 410.072 755.402 411.493 748.445 415.011C740.786 418.707 736.764 425.672 736.764 435.071C736.764 446.141 742.701 453.728 751.414 453.728C755.896 453.646 760.285 452.424 764.177 450.176C768.07 447.928 771.341 444.726 773.689 440.864C776.482 435.96 777.711 428.55 777.711 416.93V408.668Z" fill="#C70920"/>
<path d="M846.52 458.419H837.473L815.866 385.392C812.897 375.37 810.825 373.256 802.27 372.723V368.849H840.916V372.723C832.555 373.06 829.252 374.855 829.252 379.244C829.472 381.872 829.991 384.465 830.798 386.973L846.485 442.232L869.48 371.159H876.629L898.763 442.232L913.923 390.473C915.105 387.2 915.809 383.77 916.014 380.292C916.015 378.836 915.534 377.421 914.65 376.272C913.765 375.122 912.526 374.305 911.13 373.949C908.589 373.168 905.951 372.755 903.296 372.723V368.849H937.445V372.723C927.836 373.256 924.534 376.614 920.37 390.153L899.29 458.419H890.402L868.672 390.9L846.52 458.419Z" fill="#C70920"/>
<path d="M1020.39 457.353C1014.46 458.317 1008.47 458.91 1002.46 459.129C997.189 459.129 995.819 456.304 995.134 444.506C992.619 447.392 989.75 449.942 986.597 452.093C980.166 457.244 972.134 459.915 963.936 459.627C956.277 459.627 950.532 457.85 946.176 454.19C943.699 451.78 941.741 448.88 940.423 445.67C939.105 442.459 938.456 439.009 938.517 435.533C938.517 421.639 947.3 412.666 964.129 408.792C974.333 406.531 984.702 405.117 995.134 404.563V393.494C995.134 385.392 994.414 381.163 992.692 377.503C990.426 372.936 985.543 370.662 978.393 370.662C966.905 370.662 960.984 375.992 960.299 386.849C960.124 390.509 959.755 391.77 958.385 392.819C956.522 393.852 954.41 394.338 952.289 394.222C946.351 394.222 943.734 392.641 943.734 388.892C943.734 382.566 948.266 376.223 955.592 372.012C962.197 368.299 970.734 366.397 981.011 366.397C992.165 366.397 1000.19 369.027 1004.36 374.109C1007.87 378.515 1009.43 384.326 1009.43 393.991C1009.43 394.524 1009.43 394.524 1009.06 411.76L1008.89 428.462L1008.71 436.546C1008.71 443.938 1009.57 450.263 1010.63 451.702C1011.68 453.142 1013.79 453.639 1020.39 453.639V457.353ZM995.134 408.668C979.64 410.072 972.824 411.493 965.868 415.011C958.191 418.707 954.186 425.672 954.186 435.071C954.186 446.141 960.124 453.728 968.819 453.728C973.306 453.647 977.7 452.426 981.599 450.178C985.497 447.93 988.774 444.727 991.129 440.864C993.905 435.96 995.134 428.55 995.134 416.93V408.668Z" fill="#C70920"/>
<path d="M351.333 42.6436H415.838V278.587H351.333V42.6436Z" fill="#C70920"/>
<path d="M449.707 278.587V42.6436H627.13V88.3077H514.141V137.028H617.995V182.781H514.141V232.763H627.13V278.551L449.707 278.587Z" fill="#C70920"/>
<path d="M663.177 278.587V42.6436H840.495V88.3077H727.682V137.028H831.465V182.781H727.682V232.763H840.495V278.551L663.177 278.587Z" fill="#C70920"/>
<path d="M876.577 278.587V42.6436H1054V88.3077H941.169V137.028H1044.97V182.781H941.169V232.763H1054V278.551L876.577 278.587Z" fill="#C70920"/>
<path d="M144.89 43.8341C155.202 35.7319 168.166 42.466 176.809 49.9286C186.181 57.0945 195.131 64.8071 203.615 73.0272L205.144 73.8979C228.159 95.2523 248.896 118.99 267.013 144.722C269.842 149.146 272.283 154.121 270.755 159.985C264.923 174.768 253.048 186.548 242.649 199.43C220.181 223.879 196.483 247.546 169.94 266.523C164.67 270.36 157.345 273.896 150.915 270.858C131.399 260.517 114.939 243.584 97.8289 228.214C78.0313 209.469 58.1282 187.845 43.1087 165.244C41.0197 161.86 40.0706 157.883 40.4035 153.908C42.3358 146.09 47.6058 139.693 52.7001 133.066C70.2668 110.163 92.0143 88.4855 113.99 68.674C114.673 67.9 115.426 67.1921 116.239 66.5596C125.654 58.2974 135.018 51.0125 144.89 43.8341ZM175.087 20.0426L163.37 3.32274C161.905 2.21909 160.319 1.28907 158.645 0.550902C155.131 -0.959392 151.477 0.870729 148.684 3.02068L127.604 30.8101C93.7534 73.2049 53.6839 112.792 9.978 143.14C6.46467 145.877 1.3879 148.471 0.316337 153.055C-0.825496 157.071 1.26494 160.447 3.82967 162.934C39.7074 187.855 72.6638 216.826 102.062 249.287C107.332 254.92 111.654 260.481 116.818 265.758C125.602 277.503 135.773 289.301 143.766 301.899C146.278 304.564 146.717 308.9 150.652 310.197C153.708 311.281 157.503 311.973 160.437 310.197L163.37 307.247C200.237 254.819 245.335 208.844 296.877 171.143C302.024 166.488 311.826 164.764 311.967 156.147C311.769 154.121 311.126 152.167 310.083 150.426C309.04 148.686 307.625 147.204 305.941 146.09L305.116 145.948C278.529 127.65 253.687 106.884 230.914 83.9191L205.144 56.8582C194.744 45.2201 184.696 32.3204 175.087 20.0426M148.737 50.2485C159.277 43.0168 168.71 53.1269 176.844 58.9371C208.464 84.6121 238.151 114.018 260.812 147.209C263.676 151.474 264.958 158.119 262.411 162.97C256.509 172.902 248.586 181.946 241.068 191.168V191.63C222.306 211.832 202.526 232.496 181.112 249.678C170.66 256.093 161.069 270.076 147.56 261.423C116.189 237.981 87.7298 210.795 62.801 180.454C58.5674 173.808 51.9975 168.371 49.0638 160.909C44.9708 150.727 54.0001 143.407 59.1471 135.731C84.5309 104.05 115.94 73.0628 148.684 50.2129M155.325 71.0727L152.479 80.3122L138.18 121.783C141.693 122.138 146.19 121.783 149.703 122.138V122.476L147.56 169.384L147.929 169.881C152.904 170.465 157.932 170.417 162.896 169.739V168.993L161.069 123.542L161.35 121.996L173.91 121.783C167.621 104.992 161.613 88.0236 155.676 71.0372L155.325 71.0727ZM106.63 136.015C98.6194 140.084 86.797 146.232 88.1145 157.337C89.8712 163.396 96.3357 167.341 101.483 169.775C129.993 182.55 167.744 183.012 197.783 173.542C205.214 170.628 215.174 166.434 216.527 157.248C216.527 149.644 208.516 144.811 202.79 141.968V141.612C204.817 140.741 206.949 140.143 209.131 139.836V139.658C199.066 137.881 189.351 135.18 179.602 132.551C181.464 136.904 182.816 141.435 184.38 145.948C187.357 145.015 190.407 144.337 193.497 143.922C198.644 145.948 206.004 148.844 206.725 155.347C207.304 161.424 200.699 164.391 196.554 166.843C174.087 174.874 149.743 175.834 126.726 169.597C120.367 167.554 111.215 164.977 110.424 156.786C114.939 146.019 126.586 143.78 136.335 141.168C131.329 137.917 126.234 135.003 121.386 131.378C116.116 131.698 111.355 133.99 106.63 136.086M147.332 182.852C146.489 199.501 146.278 214.835 145.066 231.626C151.971 232.465 158.948 232.513 165.865 231.768L163.792 185.215L163.37 183.012C158.003 183.339 152.621 183.285 147.262 182.852" fill="#C70920"/>
<path d="M208.218 281.235C206.129 281.235 204.087 281.863 202.351 283.039C200.616 284.215 199.265 285.886 198.47 287.841C197.676 289.795 197.473 291.944 197.889 294.015C198.304 296.086 199.318 297.985 200.803 299.472C202.287 300.958 204.175 301.965 206.227 302.364C208.278 302.764 210.401 302.537 212.325 301.714C214.249 300.891 215.887 299.508 217.033 297.74C218.178 295.973 218.779 293.902 218.758 291.789C218.805 290.381 218.564 288.978 218.05 287.669C217.535 286.36 216.759 285.172 215.769 284.181C214.779 283.19 213.597 282.416 212.298 281.909C210.998 281.402 209.609 281.172 208.218 281.235M208.218 299.927C206.611 300.041 205.007 299.663 203.615 298.843C202.223 298.023 201.107 296.798 200.412 295.328C199.718 293.858 199.476 292.211 199.72 290.6C199.963 288.989 200.68 287.49 201.777 286.297C202.874 285.104 204.3 284.272 205.871 283.91C207.442 283.547 209.084 283.672 210.584 284.266C212.084 284.86 213.372 285.897 214.282 287.242C215.191 288.587 215.68 290.177 215.684 291.807C215.753 292.843 215.612 293.883 215.269 294.863C214.926 295.842 214.388 296.74 213.688 297.501C212.988 298.262 212.142 298.87 211.201 299.287C210.26 299.704 209.245 299.922 208.218 299.927M212.873 289.55C212.873 286.956 211.116 286.121 208.253 286.121H204.072V297.475H206.479V292.713H207.62L210.203 297.475H213.066L210.15 292.5C210.529 292.518 210.908 292.452 211.259 292.307C211.611 292.163 211.927 291.942 212.186 291.662C212.445 291.381 212.641 291.047 212.759 290.682C212.878 290.318 212.917 289.931 212.873 289.55M208.604 290.776H206.479V288.022H208.235C209.149 288.022 210.378 288.111 210.378 289.284C210.378 290.456 209.764 290.776 208.622 290.776" fill="#C70920"/>
</g>
<defs>
<clipPath id="clip0_202_675">
<rect width="1054" height="460" fill="white"/>
</clipPath>
</defs>
</svg>
