<svg width="978" height="455" viewBox="0 0 978 455" fill="none" xmlns="http://www.w3.org/2000/svg">
<path d="M252.858 430.264C252.045 423.404 248.88 417.119 246.26 410.754C224.909 358.882 238.927 299.649 236.086 243.397C233.597 194.116 217.972 146.667 202.49 99.9574C197.083 83.6458 191.409 66.8875 182.222 52.678C183.206 49.0933 183.744 45.3159 183.744 41.4076C183.744 18.5388 165.715 0 143.476 0C122.587 0 105.416 16.3559 103.407 37.292C91.4801 60.7347 80.7155 84.8025 71.1802 109.375C61.6759 133.867 53.2957 159.36 52.687 185.723C52.2086 206.444 56.5532 226.958 57.5573 247.66C60.3225 304.671 37.965 363.533 55.4648 417.704C59.1265 429.039 65.0742 440.442 75.3041 446.099C83.6638 450.721 93.6029 450.828 103.095 450.824C120.875 450.816 138.656 450.809 156.437 450.802C169.35 450.797 182.263 450.791 195.176 450.786L232.8 450.771C237.226 450.769 241.89 450.704 245.712 448.407C251.514 444.92 253.672 437.125 252.858 430.264V430.264Z" fill="#0D71A3"/>
<path d="M161.008 41.2424C162.595 41.1052 163.64 38.0282 163.341 34.3698C163.042 30.7114 161.512 27.8569 159.925 27.9941C158.338 28.1313 157.294 31.2083 157.593 34.8667C157.892 38.5251 159.421 41.3796 161.008 41.2424Z" fill="#3F3D56"/>
<path d="M147.03 40.982C148.617 40.8448 149.662 37.7679 149.362 34.1095C149.063 30.4511 147.534 27.5966 145.947 27.7338C144.36 27.871 143.315 30.9479 143.614 34.6063C143.913 38.2647 145.443 41.1192 147.03 40.982Z" fill="#3F3D56"/>
<path d="M158.094 199.819C156.49 197.416 153.274 196.761 150.457 197.075C147.639 197.389 144.931 198.453 142.104 198.665C139.775 198.84 137.442 198.429 135.106 198.415C132.069 198.397 129.03 199.06 126.261 200.343C117.193 204.548 112.033 215.051 111.535 225.267C111.038 235.483 114.452 245.472 118.58 254.779C120.965 260.158 123.931 265.761 129.074 268.402C133.163 270.502 137.954 270.368 142.522 270.187C149.32 269.917 156.117 269.648 162.915 269.378C166.193 269.248 169.47 269.118 172.748 268.988C177.424 268.803 182.144 268.611 186.671 267.391C197.177 264.56 206.011 255.897 209.259 245.241C212.595 234.298 210.135 222.122 204.684 212.117C201.348 205.992 196.498 200.203 189.915 198.338C186.375 197.335 182.631 197.551 178.965 197.775C172.285 198.184 165.606 198.592 158.926 199" fill="#FFA800"/>
<path d="M156.399 204.462C156.399 204.462 144.594 207.629 151.78 207.629C158.966 207.629 167.554 207.629 167.366 206.046C167.178 204.462 154.86 179.128 153.32 179.128C151.78 179.128 143.054 180.711 146.647 184.406C150.24 188.1 156.399 204.462 156.399 204.462Z" fill="#3F3D56"/>
<path d="M159.262 266.738C147.616 257.955 153.815 213.656 154.085 211.775L154.849 211.89C154.784 212.347 148.446 257.596 159.719 266.097L159.262 266.738V266.738Z" fill="#3F3D56"/>
<path d="M138.863 262.83C129.798 245.431 133.362 231.521 137.947 222.915C142.908 213.604 150.115 208.329 150.187 208.277L150.632 208.927C150.561 208.978 143.482 214.165 138.61 223.323C134.127 231.752 130.65 245.383 139.544 262.455L138.863 262.83V262.83Z" fill="#3F3D56"/>
<path d="M177.197 266.544L176.464 266.291C184.951 240.354 166.118 209.521 165.927 209.213L166.579 208.786C166.627 208.864 171.452 216.701 175.149 227.669C178.568 237.811 181.698 252.788 177.197 266.544V266.544Z" fill="#3F3D56"/>
<path d="M199.341 261.19L198.569 261.145C199.885 237.322 192.974 223.86 186.944 216.761C180.435 209.098 173.558 207.018 173.489 206.997L173.701 206.233C173.99 206.318 180.867 208.399 187.526 216.239C193.65 223.449 200.671 237.1 199.341 261.19V261.19Z" fill="#3F3D56"/>
<path d="M120.278 240.475C118.285 231.073 119.411 223.187 123.624 217.035C130.563 206.902 143.659 205.047 143.791 205.029L143.89 205.817C143.762 205.834 130.991 207.651 124.252 217.498C120.172 223.459 119.089 231.133 121.033 240.306L120.278 240.475V240.475Z" fill="#3F3D56"/>
<path d="M149.499 204.603C149.359 204.548 135.443 199.185 128.875 204.542L128.395 203.92C135.308 198.281 149.187 203.63 149.775 203.86L149.499 204.603V204.603Z" fill="#3F3D56"/>
<path d="M162.003 203.456C162 203.402 161.812 198.023 167.756 196.135L167.984 196.894C162.627 198.596 162.766 203.222 162.775 203.418L162.003 203.456V203.456Z" fill="#3F3D56"/>
<path d="M168.18 206.852L167.559 206.379C167.63 206.281 174.732 196.651 184.928 200.279L184.675 201.031C175.02 197.593 168.247 206.759 168.18 206.852H168.18Z" fill="#3F3D56"/>
<path d="M202.304 298.092H116.644C110.012 298.092 104.302 293.23 103.067 286.529L94.1253 238.051C93.3559 233.879 94.4254 229.61 97.0597 226.339C99.6938 223.068 103.573 221.193 107.703 221.193H211.245C215.375 221.193 219.254 223.068 221.889 226.339C224.523 229.61 225.592 233.879 224.823 238.051L215.882 286.529C214.646 293.23 208.936 298.092 202.304 298.092V298.092Z" fill="#3F3D56"/>
<path d="M222.74 238.75C201.489 186.438 180.204 159.914 159.474 159.914C138.745 159.914 117.459 186.438 96.2087 238.75L92.6701 237.23C103.533 210.489 114.573 190.121 125.485 176.69C136.655 162.941 148.091 155.971 159.474 155.971C170.858 155.971 182.293 162.941 193.463 176.69C204.375 190.121 215.416 210.489 226.278 237.23L222.74 238.75V238.75Z" fill="#3F3D56"/>
<path d="M137.198 150.962C145.725 145.877 155.188 146.281 158.333 151.861C161.479 157.442 157.116 166.086 148.586 171.171C145.205 173.25 141.389 174.466 137.458 174.718L101.064 195.791L91.8112 178.018L128.672 159.131C130.838 155.747 133.762 152.946 137.198 150.962V150.962Z" fill="#FFB6B6"/>
<path d="M254.931 378.921C253.255 376.409 249.893 375.724 246.948 376.053C244.002 376.381 241.171 377.493 238.217 377.715C235.781 377.897 233.343 377.468 230.901 377.454C227.727 377.435 224.55 378.127 221.655 379.469C212.176 383.865 206.782 394.844 206.262 405.523C205.742 416.202 209.311 426.644 213.626 436.373C216.119 441.995 219.219 447.853 224.595 450.614C228.87 452.809 233.879 452.669 238.653 452.479C245.759 452.197 252.865 451.916 259.971 451.634C263.397 451.498 266.823 451.362 270.25 451.226C275.138 451.032 280.072 450.832 284.804 449.556C295.786 446.597 305.02 437.542 308.416 426.402C311.904 414.963 309.332 402.235 303.634 391.777C300.146 385.374 295.076 379.323 288.195 377.373C284.495 376.324 280.581 376.55 276.749 376.785C269.766 377.212 262.784 377.639 255.801 378.065" fill="#FFA800"/>
<path d="M253.16 383.775C253.16 383.775 240.819 387.085 248.331 387.085C255.843 387.085 264.82 387.085 264.624 385.43C264.427 383.775 251.55 357.292 249.941 357.292C248.331 357.292 239.21 358.947 242.965 362.809C246.721 366.671 253.16 383.775 253.16 383.775V383.775Z" fill="#3F3D56"/>
<path d="M256.152 448.874C243.978 439.693 250.458 393.385 250.741 391.419L251.54 391.54C251.472 392.017 244.846 439.317 256.63 448.204L256.152 448.874V448.874Z" fill="#3F3D56"/>
<path d="M234.828 444.789C225.353 426.601 229.078 412.06 233.871 403.064C239.057 393.331 246.591 387.817 246.666 387.762L247.131 388.442C247.057 388.496 239.657 393.917 234.564 403.491C229.878 412.302 226.243 426.55 235.541 444.396L234.828 444.789Z" fill="#3F3D56"/>
<path d="M274.901 448.671L274.135 448.406C283.006 421.293 263.319 389.063 263.12 388.741L263.801 388.294C263.851 388.376 268.895 396.568 272.76 408.034C276.334 418.635 279.606 434.291 274.901 448.671V448.671Z" fill="#3F3D56"/>
<path d="M298.048 443.074L297.242 443.027C298.617 418.125 291.392 404.052 285.09 396.632C278.285 388.621 271.096 386.446 271.025 386.425L271.246 385.626C271.549 385.715 278.737 387.891 285.698 396.085C292.1 403.622 299.439 417.892 298.048 443.074V443.074Z" fill="#3F3D56"/>
<path d="M215.401 421.42C213.318 411.592 214.494 403.348 218.898 396.917C226.152 386.325 239.842 384.386 239.98 384.368L240.084 385.191C239.95 385.209 226.6 387.108 219.555 397.401C215.29 403.633 214.158 411.655 216.19 421.244L215.401 421.42V421.42Z" fill="#3F3D56"/>
<path d="M245.947 383.921C245.801 383.864 231.254 378.258 224.387 383.858L223.886 383.208C231.112 377.313 245.621 382.904 246.235 383.145L245.947 383.921H245.947Z" fill="#3F3D56"/>
<path d="M259.017 382.723C259.015 382.666 258.818 377.044 265.031 375.07L265.269 375.863C259.67 377.643 259.815 382.478 259.825 382.683L259.017 382.723Z" fill="#3F3D56"/>
<path d="M265.474 386.273L264.826 385.778C264.9 385.676 272.324 375.609 282.981 379.402L282.717 380.188C272.625 376.594 265.545 386.176 265.474 386.273V386.273Z" fill="#3F3D56"/>
<path d="M55.0689 378.921C56.7449 376.409 60.107 375.724 63.0523 376.053C65.9976 376.381 68.8287 377.493 71.7834 377.715C74.2186 377.897 76.6571 377.468 79.0988 377.454C82.2735 377.435 85.4504 378.127 88.3445 379.469C97.8237 383.865 103.218 394.844 103.738 405.523C104.258 416.202 100.689 426.644 96.3744 436.373C93.8808 441.995 90.781 447.853 85.4047 450.614C81.1301 452.809 76.1215 452.669 71.347 452.479C64.241 452.197 57.1349 451.916 50.0289 451.634C46.6028 451.498 43.1766 451.362 39.7505 451.226C34.8624 451.032 29.9284 450.832 25.1964 449.556C14.2142 446.597 4.9798 437.542 1.58369 426.402C-1.90356 414.963 0.668385 402.235 6.3661 391.777C9.85427 385.374 14.9241 379.323 21.8046 377.373C25.5053 376.324 29.4194 376.55 33.2513 376.785C40.2339 377.212 47.2165 377.639 54.199 378.065" fill="#FFA800"/>
<path d="M56.8402 383.775C56.8402 383.775 69.1809 387.085 61.6692 387.085C54.1575 387.085 45.1798 387.085 45.3762 385.43C45.5727 383.775 58.4499 357.292 60.0595 357.292C61.6692 357.292 70.7905 358.947 67.0347 362.809C63.2788 366.671 56.8402 383.775 56.8402 383.775V383.775Z" fill="#3F3D56"/>
<path d="M53.8479 448.874C66.0221 439.693 59.5417 393.385 59.2596 391.419L58.4604 391.54C58.5287 392.017 65.1542 439.317 53.3698 448.204L53.8479 448.874V448.874Z" fill="#3F3D56"/>
<path d="M75.1718 444.789C84.6471 426.601 80.9224 412.06 76.1292 403.064C70.9435 393.331 63.409 387.817 63.3337 387.762L62.869 388.442C62.9432 388.496 70.3435 393.917 75.4357 403.491C80.1221 412.302 83.7567 426.55 74.4594 444.396L75.1718 444.789V444.789Z" fill="#3F3D56"/>
<path d="M35.0994 448.671L35.8654 448.406C26.9941 421.293 46.6807 389.063 46.8803 388.741L46.1994 388.294C46.1489 388.376 41.1052 396.568 37.2402 408.034C33.6666 418.635 30.3945 434.291 35.0994 448.671H35.0994Z" fill="#3F3D56"/>
<path d="M11.9521 443.074L12.7584 443.027C11.3833 418.125 18.6076 404.052 24.9105 396.632C31.7152 388.621 38.9036 386.446 38.9754 386.425L38.7545 385.626C38.4515 385.715 31.2627 387.891 24.3018 396.085C17.9003 403.622 10.5612 417.892 11.9521 443.074V443.074Z" fill="#3F3D56"/>
<path d="M94.5996 421.42C96.6824 411.592 95.5057 403.348 91.1018 396.917C83.8482 386.325 70.1577 384.386 70.0204 384.368L69.9163 385.191C70.0504 385.209 83.4005 387.108 90.445 397.401C94.71 403.633 95.8422 411.655 93.8098 421.244L94.5996 421.42V421.42Z" fill="#3F3D56"/>
<path d="M64.0532 383.921C64.1992 383.864 78.7465 378.258 85.6127 383.858L86.1145 383.208C78.8881 377.313 64.3791 382.904 63.7653 383.145L64.0532 383.921H64.0532Z" fill="#3F3D56"/>
<path d="M50.9828 382.723C50.9855 382.666 51.1824 377.044 44.969 375.07L44.7308 375.863C50.3299 377.643 50.1847 382.478 50.1757 382.683L50.9828 382.723Z" fill="#3F3D56"/>
<path d="M44.5256 386.273L45.1741 385.778C45.1004 385.676 37.676 375.609 27.0186 379.402L27.2829 380.188C37.3754 376.594 44.4554 386.176 44.5256 386.273V386.273Z" fill="#3F3D56"/>
<path d="M393.757 453.057C393.155 447.72 392.892 442.352 392.969 436.983C386.744 447.589 376.387 453.83 364.582 453.83C354.385 453.83 346.552 449.007 343.368 440.733C341.759 436.51 341.132 430.111 341.132 416.542V390.791C341.132 382.691 340.489 379.397 338.736 377.994C337.787 377.065 336.339 376.749 333.316 376.592H330.453V373.156L355.189 371.58C354.401 386.095 354.224 389.846 354.224 400.625V414.194C354.224 429.954 354.546 434.162 356.459 439.614C358.373 445.382 362.893 448.377 369.326 448.377C378.092 448.377 385.908 442.735 390.058 433.216C392.438 427.905 392.92 424.485 392.92 414.809V390.791C392.92 382.533 392.438 379.555 390.54 378.184C389.575 377.254 387.983 376.781 385.104 376.608H382.225V373.172L406.961 371.596C406.479 383.305 406.157 393.66 406.157 400.641V430.111C406.157 445.729 407.588 448.534 415.887 448.534H417.013V451.97L393.757 453.057Z" fill="#FFA800"/>
<path d="M457.254 354.418C466.904 342.725 480.687 336.641 497.928 336.641C515.17 336.641 528.857 342.567 538.587 354.418C547.369 365.355 551.824 378.94 551.824 395.393C551.824 411.846 547.369 425.51 538.587 436.116C528.712 448.125 515.331 454.066 497.928 454.066C480.526 454.066 466.646 447.762 457.254 436.116C448.472 425.194 444.001 411.61 444.001 395.393C444.001 379.176 448.311 365.513 457.254 354.418ZM468.769 432.775C475.203 443.807 485.19 449.779 497.961 449.779C510.731 449.779 520.767 443.854 527.152 432.775C532.878 422.626 535.74 410.443 535.74 395.33C535.74 380.217 532.878 368.019 527.152 357.869C520.719 346.633 510.715 340.865 497.961 340.865C485.207 340.865 475.203 346.79 468.769 357.869C463.028 368.176 460.149 380.484 460.149 395.33C460.149 410.176 462.995 422.31 468.769 432.775Z" fill="#FFA800"/>
<path d="M588.027 429.812C588.027 439.016 588.51 443.082 590.102 445.256C591.694 447.431 594.251 448.534 597.918 448.534C601.473 448.555 604.96 447.582 607.971 445.729L609.418 449.779C604.468 452.36 598.942 453.698 593.335 453.672C585.518 453.672 579.616 451.04 576.898 446.044C575.145 442.892 574.678 439.488 574.678 427.921V377.38H564.626V373.802C574.035 373.014 578.812 366.931 581.208 352.259L588.542 350.242C588.22 356.94 588.059 362.85 588.059 373.172H607.215V377.396H588.027V429.812Z" fill="#FFA800"/>
<path d="M640.636 429.812C640.636 439.016 641.103 443.082 642.695 445.256C644.287 447.431 646.844 448.534 650.511 448.534C654.066 448.552 657.552 447.58 660.563 445.729L661.995 449.779C657.047 452.365 651.519 453.703 645.911 453.672C638.095 453.672 632.192 451.04 629.474 446.044C627.721 442.892 627.239 439.488 627.239 427.921V377.38H617.187V373.802C626.595 373.014 631.388 366.931 633.785 352.259L641.119 350.242C640.813 356.94 640.652 362.85 640.652 373.172H659.775V377.396H640.636V429.812Z" fill="#FFA800"/>
<path d="M747.172 451.655C741.731 452.511 736.242 453.037 730.735 453.231C725.91 453.231 724.671 450.725 724.044 440.261C721.745 442.824 719.118 445.086 716.228 446.99C710.358 451.546 703.029 453.913 695.544 453.672C688.516 453.672 683.257 452.096 679.268 448.85C676.998 446.714 675.201 444.142 673.992 441.294C672.783 438.447 672.186 435.386 672.24 432.302C672.24 419.978 680.281 412.019 695.705 408.584C705.048 406.578 714.542 405.324 724.092 404.833V395.015C724.092 387.828 723.465 384.078 721.857 380.831C719.798 376.781 715.327 374.764 708.781 374.764C698.246 374.764 692.826 379.492 692.199 389.121C692.038 392.367 691.717 393.486 690.446 394.416C688.735 395.335 686.797 395.766 684.849 395.661C679.429 395.661 677.049 394.258 677.049 390.933C677.049 385.323 681.182 379.697 687.873 375.961C693.952 372.668 701.753 370.981 711.161 370.981C721.39 370.981 728.708 373.314 732.536 377.821C735.753 381.73 737.168 386.883 737.168 395.456C737.168 395.929 737.168 395.929 736.847 411.216L736.702 426.03L736.525 433.2C736.525 439.756 737.329 445.367 738.294 446.643C739.259 447.92 741.157 448.361 747.22 448.361L747.172 451.655ZM724.044 408.474C709.843 409.719 703.618 410.979 697.249 414.1C690.237 417.378 686.554 423.555 686.554 431.892C686.554 441.71 691.99 448.44 699.967 448.44C704.071 448.367 708.089 447.283 711.653 445.29C715.217 443.296 718.211 440.455 720.361 437.03C722.918 432.68 724.044 426.108 724.044 415.802V408.474Z" fill="#FFA800"/>
<path d="M787.043 452.6H778.76L758.977 387.828C756.259 378.94 754.361 377.065 746.529 376.592V373.156H781.912V376.592C774.257 376.891 771.233 378.483 771.233 382.376C771.434 384.706 771.909 387.007 772.648 389.231L787.011 438.243L808.064 375.205H814.61L834.875 438.243L848.754 392.336C849.836 389.432 850.481 386.391 850.668 383.305C850.669 382.014 850.229 380.759 849.42 379.739C848.61 378.72 847.475 377.995 846.197 377.679C843.871 376.987 841.456 376.62 839.024 376.592V373.156H870.29V376.592C861.492 377.065 858.469 380.043 854.657 392.052L835.357 452.6H827.219L807.324 392.714L787.043 452.6Z" fill="#FFA800"/>
<path d="M946.236 451.655C940.8 452.51 935.316 453.036 929.814 453.231C924.989 453.231 923.735 450.725 923.108 440.261C920.805 442.82 918.178 445.082 915.291 446.99C909.404 451.559 902.05 453.927 894.544 453.672C887.531 453.672 882.272 452.096 878.284 448.85C876.016 446.712 874.223 444.14 873.016 441.292C871.81 438.445 871.216 435.385 871.271 432.302C871.271 419.978 879.313 412.019 894.721 408.584C904.063 406.578 913.557 405.324 923.108 404.833V395.015C923.108 387.828 922.448 384.078 920.872 380.831C918.797 376.781 914.326 374.764 907.78 374.764C897.262 374.764 891.842 379.492 891.214 389.121C891.054 392.367 890.716 393.486 889.461 394.416C887.756 395.332 885.823 395.764 883.881 395.661C878.444 395.661 876.048 394.258 876.048 390.933C876.048 385.323 880.197 379.697 886.904 375.961C892.952 372.668 900.768 370.981 910.177 370.981C920.39 370.981 927.74 373.314 931.552 377.821C934.768 381.73 936.2 386.883 936.2 395.456C936.2 395.929 936.2 395.929 935.862 411.216L935.701 426.03L935.54 433.2C935.54 439.756 936.328 445.367 937.293 446.643C938.258 447.92 940.188 448.361 946.236 448.361V451.655ZM923.108 408.474C908.922 409.719 902.682 410.979 896.313 414.1C889.285 417.378 885.618 423.555 885.618 431.892C885.618 441.71 891.054 448.44 899.015 448.44C903.123 448.368 907.146 447.285 910.715 445.291C914.284 443.298 917.285 440.457 919.441 437.03C921.982 432.68 923.108 426.108 923.108 415.802V408.474Z" fill="#FFA800"/>
<path d="M333.67 83.8257H392.728V293.098H333.67V83.8257Z" fill="#FFA800"/>
<path d="M423.736 293.098V83.8257H586.178V124.328H482.73V167.541H577.815V208.122H482.73V252.454H586.178V293.066L423.736 293.098Z" fill="#FFA800"/>
<path d="M619.181 293.098V83.8257H781.526V124.328H678.239V167.541H773.259V208.122H678.239V252.454H781.526V293.066L619.181 293.098Z" fill="#FFA800"/>
<path d="M814.561 293.098V83.8257H977.003V124.328H873.7V167.541H968.736V208.122H873.7V252.454H977.003V293.066L814.561 293.098Z" fill="#FFA800"/>
<path d="M154.227 365.266C156.805 363.184 160.046 364.914 162.207 366.832C164.55 368.674 166.788 370.656 168.91 372.769L169.292 372.992C175.046 378.48 180.231 384.581 184.76 391.194C185.468 392.331 186.078 393.61 185.696 395.116C184.238 398.915 181.269 401.943 178.669 405.254C173.051 411.537 167.126 417.619 160.49 422.496C159.172 423.483 157.341 424.391 155.733 423.61C150.854 420.953 146.738 416.601 142.46 412.651C137.511 407.834 132.534 402.276 128.779 396.468C128.257 395.598 128.019 394.576 128.103 393.555C128.586 391.545 129.903 389.902 131.177 388.198C135.569 382.312 141.007 376.741 146.501 371.65C146.672 371.451 146.86 371.269 147.063 371.106C149.417 368.983 151.758 367.111 154.227 365.266ZM161.777 359.152L158.847 354.855C158.481 354.571 158.085 354.332 157.666 354.142C156.787 353.754 155.874 354.225 155.175 354.777L149.905 361.919C141.441 372.814 131.423 382.988 120.496 390.787C119.617 391.491 118.348 392.157 118.08 393.335C117.794 394.368 118.317 395.235 118.958 395.874C127.929 402.279 136.169 409.724 143.519 418.067C144.837 419.514 145.917 420.944 147.208 422.3C149.404 425.318 151.947 428.35 153.946 431.588C154.574 432.273 154.684 433.387 155.667 433.72C156.432 433.999 157.38 434.177 158.114 433.72L158.847 432.962C168.065 419.488 179.34 407.673 192.227 397.984C193.514 396.788 195.965 396.345 196 394.13C195.951 393.61 195.79 393.107 195.529 392.66C195.268 392.213 194.914 391.832 194.493 391.545L194.287 391.509C187.64 386.806 181.429 381.47 175.735 375.568L169.292 368.613C166.692 365.622 164.179 362.307 161.777 359.152ZM155.189 366.914C157.824 365.056 160.182 367.654 162.216 369.147C170.122 375.746 177.545 383.303 183.21 391.833C183.926 392.929 184.247 394.637 183.61 395.883C182.134 398.436 180.153 400.76 178.273 403.13V403.249C173.583 408.441 168.637 413.752 163.283 418.167C160.67 419.816 158.272 423.41 154.894 421.186C147.051 415.161 139.935 408.174 133.703 400.377C132.644 398.669 131.001 397.272 130.268 395.354C129.245 392.737 131.502 390.856 132.789 388.883C139.136 380.741 146.989 372.778 155.175 366.905L155.189 366.914ZM156.836 372.266L156.124 374.641L152.549 385.299C153.427 385.39 154.552 385.299 155.43 385.39V385.477L154.894 397.532L154.987 397.66C156.231 397.81 157.488 397.797 158.729 397.623V397.431L158.272 385.751L158.342 385.353L161.483 385.299C159.91 380.983 158.408 376.623 156.923 372.257L156.836 372.266ZM144.661 388.956C142.658 390.002 139.702 391.582 140.032 394.436C140.471 395.993 142.087 397.007 143.374 397.632C150.502 400.916 159.941 401.034 167.451 398.6C169.309 397.851 171.8 396.774 172.138 394.413C172.138 392.459 170.135 391.217 168.703 390.486V390.395C169.21 390.171 169.743 390.017 170.289 389.938V389.892C167.772 389.436 165.343 388.742 162.906 388.066C163.371 389.185 163.709 390.349 164.1 391.509C164.845 391.269 165.607 391.095 166.38 390.988C167.667 391.509 169.507 392.253 169.687 393.924C169.832 395.486 168.18 396.249 167.144 396.879C161.527 398.943 155.44 399.19 149.685 397.587C148.096 397.062 145.807 396.4 145.61 394.294C146.738 391.527 149.65 390.952 152.088 390.281C150.836 389.445 149.563 388.696 148.35 387.764C147.033 387.847 145.842 388.436 144.661 388.975V388.956ZM154.837 400.993C154.627 405.272 154.574 409.213 154.271 413.528C155.997 413.744 157.742 413.756 159.471 413.564L158.953 401.601L158.847 401.034C157.505 401.118 156.16 401.105 154.82 400.993" fill="#FFA800"/>
<path d="M188.65 418.009C186.737 418.009 184.868 418.566 183.279 419.609C181.69 420.652 180.453 422.135 179.726 423.868C178.998 425.601 178.813 427.508 179.193 429.344C179.573 431.181 180.502 432.866 181.861 434.184C183.22 435.503 184.949 436.396 186.827 436.75C188.705 437.104 190.649 436.903 192.41 436.173C194.172 435.443 195.672 434.216 196.721 432.649C197.769 431.081 198.319 429.244 198.3 427.37C198.343 426.121 198.123 424.877 197.652 423.716C197.181 422.554 196.47 421.501 195.564 420.622C194.657 419.743 193.575 419.057 192.386 418.607C191.196 418.157 189.924 417.954 188.65 418.009ZM188.65 434.588C187.179 434.689 185.71 434.354 184.436 433.627C183.161 432.899 182.14 431.813 181.504 430.509C180.868 429.205 180.647 427.744 180.869 426.316C181.092 424.887 181.748 423.557 182.753 422.499C183.757 421.44 185.063 420.703 186.501 420.381C187.939 420.06 189.443 420.17 190.816 420.697C192.189 421.224 193.369 422.144 194.202 423.337C195.034 424.53 195.482 425.941 195.485 427.386C195.549 428.305 195.42 429.228 195.106 430.096C194.791 430.965 194.299 431.761 193.658 432.436C193.018 433.111 192.243 433.65 191.381 434.02C190.52 434.39 189.59 434.584 188.65 434.588ZM192.912 425.384C192.912 423.083 191.304 422.343 188.682 422.343H184.854V432.413H187.058V428.189H188.103L190.467 432.413H193.089L190.419 428C190.766 428.016 191.113 427.958 191.434 427.83C191.756 427.702 192.046 427.506 192.283 427.257C192.52 427.008 192.699 426.712 192.808 426.389C192.916 426.065 192.952 425.722 192.912 425.384ZM189.004 426.472H187.058V424.029H188.666C189.502 424.029 190.628 424.108 190.628 425.148C190.628 426.188 190.065 426.472 189.02 426.472" fill="#FFA800"/>
</svg>
