<svg width="965" height="408" viewBox="0 0 965 408" fill="none" xmlns="http://www.w3.org/2000/svg">
<g clip-path="url(#clip0_105_2)">
<path d="M381.754 407.054C381.152 401.717 380.889 396.349 380.966 390.98C374.741 401.586 364.384 407.827 352.579 407.827C342.382 407.827 334.549 403.004 331.365 394.73C329.756 390.507 329.129 384.108 329.129 370.539V344.788C329.129 336.688 328.486 333.394 326.733 331.991C325.784 331.062 324.336 330.746 321.313 330.589H318.45V327.153L343.186 325.577C342.398 340.092 342.221 343.843 342.221 354.622V368.191C342.221 383.951 342.543 388.159 344.456 393.611C346.37 399.379 350.89 402.374 357.323 402.374C366.089 402.374 373.905 396.732 378.055 387.213C380.435 381.902 380.917 378.482 380.917 368.806V344.788C380.917 336.53 380.435 333.552 378.537 332.181C377.572 331.251 375.98 330.778 373.101 330.605H370.222V327.169L394.958 325.593C394.476 337.302 394.154 347.657 394.154 354.638V384.108C394.154 399.726 395.585 402.531 403.884 402.531H405.01V405.967L381.754 407.054Z" fill="#0D70A3"/>
<path d="M445.251 308.415C454.901 296.722 468.684 290.638 485.925 290.638C503.167 290.638 516.854 296.564 526.584 308.415C535.366 319.352 539.821 332.937 539.821 349.39C539.821 365.843 535.366 379.507 526.584 390.113C516.709 402.122 503.328 408.063 485.925 408.063C468.523 408.063 454.643 401.759 445.251 390.113C436.469 379.191 431.998 365.607 431.998 349.39C431.998 333.173 436.308 319.51 445.251 308.415ZM456.766 386.772C463.2 397.804 473.187 403.776 485.958 403.776C498.728 403.776 508.764 397.851 515.149 386.772C520.875 376.623 523.737 364.44 523.737 349.327C523.737 334.214 520.875 322.016 515.149 311.866C508.716 300.63 498.712 294.862 485.958 294.862C473.204 294.862 463.2 300.787 456.766 311.866C451.025 322.173 448.146 334.481 448.146 349.327C448.146 364.173 450.992 376.307 456.766 386.772Z" fill="#0D70A3"/>
<path d="M576.024 383.809C576.024 393.013 576.507 397.079 578.099 399.253C579.691 401.428 582.248 402.531 585.915 402.531C589.47 402.552 592.957 401.579 595.968 399.726L597.415 403.776C592.465 406.357 586.939 407.695 581.332 407.669C573.515 407.669 567.613 405.037 564.895 400.041C563.142 396.889 562.675 393.485 562.675 381.918V331.377H552.623V327.799C562.032 327.011 566.809 320.928 569.205 306.256L576.539 304.239C576.217 310.937 576.056 316.847 576.056 327.169H595.212V331.393H576.024V383.809Z" fill="#0D70A3"/>
<path d="M628.633 383.809C628.633 393.013 629.1 397.079 630.692 399.253C632.284 401.428 634.841 402.531 638.508 402.531C642.063 402.549 645.549 401.577 648.56 399.726L649.992 403.776C645.044 406.362 639.516 407.7 633.908 407.669C626.092 407.669 620.189 405.037 617.471 400.041C615.718 396.889 615.236 393.485 615.236 381.918V331.377H605.184V327.799C614.592 327.011 619.385 320.928 621.782 306.256L629.116 304.239C628.81 310.937 628.649 316.847 628.649 327.169H647.772V331.393H628.633V383.809Z" fill="#0D70A3"/>
<path d="M735.169 405.652C729.728 406.508 724.239 407.034 718.732 407.228C713.907 407.228 712.668 404.722 712.041 394.258C709.742 396.821 707.115 399.083 704.225 400.987C698.355 405.543 691.026 407.91 683.541 407.669C676.513 407.669 671.254 406.093 667.265 402.847C664.995 400.711 663.198 398.139 661.989 395.291C660.78 392.444 660.183 389.383 660.237 386.299C660.237 373.975 668.278 366.016 683.702 362.581C693.045 360.575 702.539 359.321 712.089 358.83V349.012C712.089 341.825 711.462 338.075 709.854 334.828C707.795 330.778 703.324 328.761 696.778 328.761C686.243 328.761 680.823 333.489 680.196 343.118C680.035 346.364 679.714 347.483 678.443 348.413C676.732 349.332 674.794 349.763 672.846 349.658C667.426 349.658 665.046 348.255 665.046 344.93C665.046 339.32 669.179 333.694 675.87 329.958C681.949 326.665 689.75 324.978 699.158 324.978C709.387 324.978 716.705 327.311 720.533 331.818C723.75 335.727 725.165 340.88 725.165 349.453C725.165 349.926 725.165 349.926 724.844 365.213L724.699 380.027L724.522 387.197C724.522 393.753 725.326 399.364 726.291 400.64C727.256 401.917 729.154 402.358 735.217 402.358L735.169 405.652ZM712.041 362.471C697.84 363.716 691.615 364.976 685.246 368.097C678.234 371.375 674.551 377.552 674.551 385.889C674.551 395.707 679.987 402.437 687.964 402.437C692.068 402.364 696.086 401.28 699.65 399.287C703.214 397.293 706.208 394.452 708.358 391.027C710.915 386.677 712.041 380.105 712.041 369.799V362.471Z" fill="#0D70A3"/>
<path d="M775.04 406.597H766.757L746.974 341.825C744.256 332.937 742.358 331.062 734.526 330.589V327.153H769.909V330.589C762.254 330.888 759.23 332.48 759.23 336.373C759.431 338.703 759.906 341.004 760.645 343.228L775.008 392.24L796.061 329.202H802.607L822.872 392.24L836.751 346.333C837.833 343.429 838.478 340.388 838.665 337.302C838.666 336.011 838.226 334.756 837.417 333.736C836.607 332.717 835.472 331.992 834.194 331.676C831.868 330.984 829.453 330.617 827.021 330.589V327.153H858.287V330.589C849.489 331.062 846.466 334.04 842.654 346.049L823.354 406.597H815.216L795.321 346.711L775.04 406.597Z" fill="#0D70A3"/>
<path d="M934.233 405.652C928.797 406.507 923.313 407.033 917.811 407.228C912.986 407.228 911.732 404.722 911.105 394.258C908.802 396.817 906.175 399.079 903.288 400.987C897.401 405.556 890.047 407.924 882.541 407.669C875.528 407.669 870.269 406.093 866.281 402.847C864.013 400.709 862.22 398.137 861.013 395.289C859.807 392.442 859.213 389.382 859.268 386.299C859.268 373.975 867.31 366.016 882.718 362.581C892.06 360.575 901.554 359.321 911.105 358.83V349.012C911.105 341.825 910.445 338.075 908.869 334.828C906.794 330.778 902.323 328.761 895.777 328.761C885.259 328.761 879.839 333.489 879.211 343.118C879.051 346.364 878.713 347.483 877.458 348.413C875.753 349.329 873.82 349.761 871.878 349.658C866.441 349.658 864.045 348.255 864.045 344.93C864.045 339.32 868.194 333.694 874.901 329.958C880.949 326.665 888.765 324.978 898.174 324.978C908.387 324.978 915.737 327.311 919.549 331.818C922.765 335.727 924.197 340.88 924.197 349.453C924.197 349.926 924.197 349.926 923.859 365.213L923.698 380.027L923.537 387.197C923.537 393.753 924.325 399.364 925.29 400.64C926.255 401.917 928.185 402.358 934.233 402.358V405.652ZM911.105 362.471C896.919 363.716 890.679 364.976 884.31 368.097C877.282 371.375 873.615 377.552 873.615 385.889C873.615 395.707 879.051 402.437 887.012 402.437C891.12 402.365 895.143 401.282 898.712 399.288C902.281 397.295 905.282 394.454 907.438 391.027C909.979 386.677 911.105 380.105 911.105 369.799V362.471Z" fill="#0D70A3"/>
<path d="M321.667 37.823H380.725V247.095H321.667V37.823Z" fill="#0D71A3"/>
<path d="M411.733 247.095V37.823H574.175V78.3252H470.727V121.538H565.812V162.119H470.727V206.451H574.175V247.063L411.733 247.095Z" fill="#0D71A3"/>
<path d="M607.178 247.095V37.823H769.523V78.3252H666.236V121.538H761.256V162.119H666.236V206.451H769.523V247.063L607.178 247.095Z" fill="#0D71A3"/>
<path d="M802.558 247.095V37.823H965V78.3252H861.697V121.538H956.733V162.119H861.697V206.451H965V247.063L802.558 247.095Z" fill="#0D71A3"/>
<path d="M132.655 38.8789C142.096 31.6925 153.966 37.6654 161.879 44.2844C170.459 50.6402 178.654 57.481 186.422 64.7719L187.821 65.5441C208.893 84.4845 227.879 105.539 244.466 128.362C247.056 132.286 249.292 136.699 247.892 141.899C242.553 155.011 231.68 165.46 222.159 176.886C201.588 198.571 179.892 219.563 155.59 236.394C150.765 239.798 144.058 242.934 138.172 240.239C120.303 231.067 105.233 216.048 89.5679 202.416C71.442 185.79 53.2196 166.61 39.4683 146.564C37.5557 143.563 36.6867 140.035 36.9915 136.51C38.7607 129.575 43.5857 123.902 48.2498 118.024C64.3332 97.7094 84.2443 78.4827 104.365 60.9108C104.99 60.2242 105.679 59.5964 106.423 59.0354C115.044 51.7072 123.616 45.2457 132.655 38.8789ZM160.302 17.7768L149.575 2.947C148.233 1.96812 146.782 1.14323 145.248 0.488509C142.032 -0.851056 138.686 0.772181 136.129 2.67909L116.829 27.3271C85.8366 64.9295 49.1505 100.042 9.13517 126.959C5.9185 129.386 1.27042 131.687 0.289337 135.753C-0.75608 139.315 1.15784 142.309 3.506 144.515C36.3542 166.619 66.5278 192.315 93.444 221.107C98.269 226.103 102.225 231.036 106.954 235.716C114.996 246.133 124.308 256.598 131.626 267.771C133.926 270.135 134.328 273.98 137.93 275.131C140.729 276.092 144.203 276.707 146.889 275.131L149.575 272.515C183.328 226.013 224.618 185.235 271.808 151.796C276.521 147.667 285.495 146.139 285.624 138.495C285.443 136.699 284.854 134.965 283.899 133.421C282.945 131.878 281.649 130.563 280.107 129.575L279.351 129.449C255.009 113.22 232.266 94.8013 211.415 74.4325L187.821 50.4306C178.3 40.1081 169.1 28.6667 160.302 17.7768V17.7768ZM136.177 44.5681C145.827 38.1539 154.464 47.1211 161.911 52.2745C190.861 75.0471 218.042 101.129 238.789 130.568C241.411 134.35 242.585 140.245 240.253 144.547C234.849 153.357 227.595 161.378 220.711 169.557V169.967C203.534 187.886 185.425 206.214 165.819 221.454C156.249 227.143 147.468 239.546 135.1 231.871C106.377 211.079 80.3216 186.966 57.4978 160.054C53.6217 154.16 47.6065 149.338 44.9206 142.719C41.1732 133.689 49.44 127.196 54.1524 120.387C77.3928 92.2881 106.15 64.8034 136.129 44.5366L136.177 44.5681ZM142.209 63.0383L139.603 71.2333L126.511 108.016C129.728 108.331 133.845 108.016 137.062 108.331V108.631L135.1 150.236L135.438 150.677C139.993 151.195 144.596 151.152 149.141 150.551V149.889L147.468 109.576L147.725 108.205L159.225 108.016C153.467 93.1234 147.966 78.073 142.53 63.0068L142.209 63.0383ZM97.6257 120.64C90.2917 124.249 79.4676 129.701 80.6738 139.551C82.2822 144.925 88.2008 148.424 92.9133 150.583C119.016 161.914 153.58 162.324 181.082 153.924C187.885 151.339 197.005 147.62 198.243 139.472C198.243 132.727 190.909 128.441 185.666 125.919V125.604C187.522 124.831 189.474 124.301 191.472 124.028V123.87C182.256 122.294 173.362 119.899 164.436 117.566C166.141 121.428 167.379 125.446 168.81 129.449C171.536 128.622 174.329 128.021 177.158 127.653C181.87 129.449 188.609 132.018 189.268 137.786C189.799 143.176 183.752 145.808 179.956 147.983C159.387 155.105 137.098 155.957 116.025 150.425C110.203 148.613 101.823 146.328 101.1 139.063C105.233 129.512 115.896 127.527 124.823 125.21C120.239 122.326 115.575 119.741 111.136 116.526C106.311 116.81 101.952 118.843 97.6257 120.703V120.64ZM134.891 162.182C134.119 176.949 133.926 190.549 132.816 205.442C139.138 206.187 145.527 206.229 151.859 205.568L149.961 164.278L149.575 162.324C144.661 162.613 139.733 162.566 134.826 162.182" fill="#0D71A3"/>
<path d="M190.636 249.443C188.723 249.443 186.854 250 185.265 251.043C183.676 252.086 182.439 253.569 181.712 255.302C180.984 257.035 180.799 258.942 181.179 260.778C181.559 262.615 182.488 264.3 183.847 265.618C185.206 266.937 186.935 267.83 188.813 268.184C190.691 268.538 192.635 268.337 194.396 267.607C196.158 266.877 197.658 265.65 198.707 264.083C199.755 262.515 200.305 260.678 200.286 258.804C200.329 257.555 200.109 256.311 199.638 255.15C199.167 253.988 198.456 252.935 197.55 252.056C196.643 251.177 195.561 250.491 194.372 250.041C193.182 249.591 191.91 249.388 190.636 249.443V249.443ZM190.636 266.022C189.165 266.123 187.696 265.788 186.422 265.061C185.147 264.333 184.126 263.247 183.49 261.943C182.854 260.639 182.633 259.178 182.855 257.75C183.078 256.321 183.734 254.991 184.739 253.933C185.743 252.874 187.049 252.137 188.487 251.815C189.925 251.494 191.429 251.604 192.802 252.131C194.175 252.658 195.355 253.578 196.188 254.771C197.02 255.964 197.468 257.375 197.471 258.82C197.535 259.739 197.406 260.662 197.092 261.53C196.777 262.399 196.285 263.195 195.644 263.87C195.004 264.545 194.229 265.084 193.367 265.454C192.506 265.824 191.576 266.018 190.636 266.022V266.022ZM194.898 256.818C194.898 254.517 193.29 253.777 190.668 253.777H186.84V263.847H189.044V259.623H190.089L192.453 263.847H195.075L192.405 259.434C192.752 259.45 193.099 259.392 193.42 259.264C193.742 259.136 194.032 258.94 194.269 258.691C194.506 258.442 194.685 258.146 194.794 257.823C194.902 257.499 194.938 257.156 194.898 256.818V256.818ZM190.99 257.906H189.044V255.463H190.652C191.488 255.463 192.614 255.542 192.614 256.582C192.614 257.622 192.051 257.906 191.006 257.906" fill="#0D71A3"/>
</g>
<defs>
<clipPath id="clip0_105_2">
<rect width="965" height="408" fill="white"/>
</clipPath>
</defs>
</svg>
