<svg xmlns="http://www.w3.org/2000/svg" width="80" height="80" fill="none" viewBox="0 0 80 80"><path stroke="#E1E1E6" stroke-linecap="square" stroke-linejoin="round" stroke-width="4" d="M46.8028 33.1975L38.4326 41.5677"/><path fill-rule="evenodd" stroke="#E1E1E6" stroke-linecap="round" stroke-linejoin="round" stroke-width="4" d="M46.6695 19.9912V33.3301H60.0084L73.3473 19.9912L64.4536 15.546L60.0084 6.65234L46.6695 19.9912Z" clip-rule="evenodd"/><path stroke="url(#paint0_linear)" stroke-linecap="round" stroke-linejoin="round" stroke-width="4" d="M36.6653 13.2375C21.4536 14.1712 9.68799 26.9405 9.99994 42.1776C10.3119 57.4147 22.5903 69.6917 37.8274 70.002C53.0645 70.3122 65.8325 58.5452 66.7645 43.3334"/><path stroke="url(#paint1_linear)" stroke-linecap="round" stroke-linejoin="round" stroke-width="4" d="M54.0392 43.3348C53.1426 51.5452 46.0584 57.67 37.8046 57.3706C29.5508 57.0712 22.9289 50.4493 22.6295 42.1955C22.3302 33.9418 28.4549 26.8575 36.6653 25.9609"/><defs><linearGradient id="paint0_linear" x1="38.379" x2="38.379" y1="13.238" y2="70.008" gradientUnits="userSpaceOnUse"><stop stop-color="#8257E5"/><stop offset="1" stop-color="#8257E5" stop-opacity=".25"/></linearGradient><linearGradient id="paint1_linear" x1="54" x2="54" y1="57" y2="26" gradientUnits="userSpaceOnUse"><stop stop-color="#04D361"/><stop offset="1" stop-color="#04D361" stop-opacity=".25"/></linearGradient></defs></svg>